<?xml version="1.0" standalone="no"?>
<!DOCTYPE svg PUBLIC "-//W3C//DTD SVG 20010904//EN"
 "http://www.w3.org/TR/2001/REC-SVG-20010904/DTD/svg10.dtd">
<svg version="1.0" xmlns="http://www.w3.org/2000/svg"
 width="589.000000pt" height="701.000000pt" viewBox="0 0 589.000000 701.000000"
 preserveAspectRatio="xMidYMid meet">

<g transform="translate(0.000000,701.000000) scale(0.100000,-0.100000)"
fill="#000000" stroke="none">
<path d="M2045 6756 c-134 -62 -204 -208 -205 -425 0 -207 69 -355 198 -418
77 -38 183 -39 255 -3 86 43 155 137 188 255 22 77 19 296 -5 365 -37 109
-100 187 -181 226 -70 33 -179 33 -250 0z m175 -194 c34 -34 50 -103 50 -215
0 -125 -16 -207 -47 -239 -45 -47 -93 -37 -126 26 -20 37 -22 55 -22 196 0
138 2 159 21 195 20 38 53 65 82 65 8 0 26 -13 42 -28z"/>
<path d="M3175 6757 c-84 -40 -152 -133 -186 -252 -22 -77 -19 -296 5 -365 38
-110 99 -187 186 -231 36 -19 61 -24 120 -23 92 0 147 23 208 85 83 85 121
200 122 368 0 162 -40 282 -120 360 -61 59 -102 75 -200 79 -73 2 -92 -1 -135
-21z m159 -178 c50 -23 61 -67 61 -249 0 -138 -3 -170 -18 -197 -43 -79 -123
-68 -157 22 -18 47 -24 213 -11 290 14 77 34 118 65 134 28 13 31 13 60 0z"/>
<path d="M5044 6756 c-151 -70 -203 -290 -102 -427 27 -36 114 -81 208 -109
87 -26 110 -42 110 -81 0 -35 -24 -49 -85 -49 -40 0 -52 5 -81 34 -19 19 -34
41 -34 50 0 19 6 19 -88 0 -111 -22 -112 -22 -112 -50 l0 -25 -142 3 -143 3
-3 73 -3 72 126 0 125 0 0 95 0 95 -125 0 -125 0 0 65 0 65 155 0 155 0 0 100
0 100 -260 0 -260 0 0 -435 0 -435 260 0 259 0 3 77 3 77 28 -45 c95 -150 354
-171 486 -38 94 93 108 272 30 379 -35 48 -73 68 -207 110 -122 38 -147 65
-102 110 37 37 122 18 150 -34 7 -14 18 -26 24 -26 15 0 149 51 160 60 12 12
-32 95 -73 137 -53 55 -102 73 -201 73 -68 0 -95 -5 -136 -24z"/>
<path d="M560 6336 l0 -436 110 0 110 0 0 154 0 153 98 6 c71 3 110 11 138 25
88 45 137 134 138 247 0 122 -48 215 -131 257 -45 21 -62 23 -255 26 l-208 4
0 -436z m360 214 c14 -14 20 -33 20 -63 0 -60 -23 -80 -100 -85 l-60 -4 0 86
0 86 60 0 c47 0 64 -4 80 -20z"/>
<path d="M1195 6335 l0 -435 108 0 107 0 0 165 0 165 35 0 c31 0 35 -3 45 -39
5 -21 21 -72 34 -112 12 -41 29 -98 36 -126 l14 -53 121 0 121 0 -62 186 -62
186 48 46 c54 53 74 104 73 192 -1 90 -19 139 -72 191 -65 62 -97 69 -343 69
l-203 0 0 -435z m337 245 c21 -6 42 -19 48 -30 16 -30 12 -75 -11 -104 -19
-24 -27 -26 -90 -26 l-69 0 0 85 0 85 43 0 c23 0 59 -5 79 -10z"/>
<path d="M2490 6665 l0 -105 70 0 70 0 0 -330 0 -330 105 0 105 0 0 330 0 330
70 0 70 0 0 105 0 105 -245 0 -245 0 0 -105z"/>
<path d="M3680 6335 l0 -435 90 0 90 0 -1 218 c0 119 -4 240 -9 267 -4 28 -7
51 -5 53 1 1 10 -19 20 -45 10 -27 67 -148 127 -270 l108 -223 90 0 90 0 0
435 0 435 -91 0 -92 0 6 -217 c3 -120 8 -227 12 -238 4 -11 -46 87 -111 218
l-118 237 -103 0 -103 0 0 -435z"/>
<path d="M2830 5654 c-286 -25 -325 -30 -520 -77 -488 -116 -926 -368 -1285
-738 -138 -142 -182 -195 -284 -337 -184 -258 -320 -555 -406 -889 -131 -505
-108 -1059 65 -1558 188 -543 527 -991 1020 -1345 350 -251 789 -416 1255
-471 138 -16 479 -16 605 0 381 49 715 163 1048 357 460 269 813 644 1046
1114 310 625 377 1274 200 1949 -257 984 -1071 1742 -2089 1946 -178 36 -515
61 -655 49z m365 -95 c603 -52 1123 -289 1579 -720 411 -388 673 -885 778
-1471 19 -108 22 -159 22 -418 1 -194 -3 -318 -12 -363 -6 -37 -17 -97 -23
-135 -48 -292 -178 -623 -352 -897 -415 -651 -1053 -1080 -1791 -1204 -631
-107 -1266 16 -1796 347 -701 438 -1136 1116 -1241 1937 -19 143 -16 522 4
658 113 751 510 1400 1107 1809 364 249 715 385 1145 442 202 27 388 32 580
15z"/>
<path d="M3740 5326 c0 -8 6 -19 14 -25 16 -13 9 -34 -62 -199 -74 -170 -77
-241 -10 -297 69 -58 152 -71 209 -32 47 32 78 82 144 240 55 130 60 137 87
137 45 0 33 15 -37 42 -68 27 -76 27 -48 -4 15 -17 14 -23 -17 -101 -100 -246
-134 -297 -197 -297 -52 0 -102 28 -121 67 -14 29 -14 41 -4 81 16 58 122 315
135 323 5 4 18 4 28 2 10 -3 19 -1 19 4 0 6 -31 24 -70 41 -49 22 -70 27 -70
18z"/>
<path d="M2928 5248 l-3 -53 -50 -17 -50 -16 48 -23 49 -24 -4 -57 c-2 -32 -2
-58 0 -58 1 0 18 18 38 40 l36 39 51 -19 c29 -11 53 -20 54 -20 1 0 -10 23
-26 52 l-29 52 34 45 c19 24 33 46 31 47 -2 2 -19 -1 -38 -6 -55 -16 -67 -12
-95 30 -15 22 -30 40 -35 40 -4 0 -9 -24 -11 -52z"/>
<path d="M1853 5199 c-107 -41 -151 -128 -107 -214 29 -54 59 -68 164 -75 106
-8 133 -19 155 -67 27 -57 2 -102 -72 -128 l-38 -14 -37 42 c-20 23 -39 39
-42 36 -4 -3 3 -32 15 -63 l22 -58 36 7 c52 10 104 39 139 80 26 29 32 44 32
83 0 53 -25 101 -65 128 -18 12 -57 19 -127 23 -94 6 -101 8 -124 34 -34 40
-33 98 3 126 49 39 72 38 111 -3 18 -21 36 -36 38 -33 6 6 -32 111 -42 113 -5
2 -32 -6 -61 -17z"/>
<path d="M4310 5051 c0 -6 5 -13 10 -16 22 -13 5 -43 -117 -211 -120 -165
-130 -175 -155 -170 -39 8 -35 -7 10 -37 20 -15 50 -36 66 -49 28 -21 29 -21
24 -3 -3 11 -9 27 -12 36 -4 9 12 41 45 87 l52 72 21 -19 c27 -26 88 -51 122
-51 75 0 154 80 154 156 0 54 -25 85 -120 149 -39 26 -73 52 -76 56 -7 12 -24
11 -24 0z m125 -112 c44 -39 46 -77 6 -140 -46 -73 -109 -87 -165 -36 l-25 22
66 93 c37 50 71 92 75 92 4 0 23 -14 43 -31z"/>
<path d="M1407 4910 c-138 -112 -140 -114 -101 -106 31 7 34 3 168 -164 75
-94 136 -177 136 -183 0 -7 -5 -18 -12 -25 -6 -6 -9 -14 -5 -18 3 -3 56 34
118 82 62 49 117 92 122 96 6 3 -7 29 -28 59 -40 54 -55 53 -36 -3 17 -48 15
-52 -47 -101 l-58 -45 -30 36 c-16 20 -46 58 -66 83 l-37 47 41 33 c40 31 42
32 69 17 43 -25 41 -11 -4 47 -47 60 -78 75 -52 26 15 -29 14 -30 -25 -61 -22
-17 -44 -30 -49 -28 -11 4 -125 148 -120 152 2 1 28 21 57 45 l52 43 36 -27
c19 -15 37 -25 40 -23 5 5 -49 108 -56 107 -3 -1 -54 -40 -113 -89z"/>
<path d="M2943 4830 c-9 -25 -17 -30 -45 -30 l-33 -1 28 -24 c24 -22 27 -30
22 -58 l-7 -32 22 20 c21 19 23 19 52 2 l30 -17 -7 31 c-6 27 -3 35 21 55 l29
23 -37 1 c-32 0 -37 3 -43 30 -4 17 -10 30 -14 30 -3 0 -12 -13 -18 -30z"/>
<path d="M2712 4817 c-10 -29 -19 -36 -50 -42 l-37 -7 28 -14 c21 -12 27 -22
27 -49 0 -39 5 -42 32 -18 16 14 24 15 49 6 33 -13 33 -13 17 23 -11 24 -10
28 17 50 l30 24 -37 0 c-33 0 -40 4 -51 31 l-12 31 -13 -35z"/>
<path d="M3183 4819 c-12 -30 -14 -31 -50 -24 l-38 7 24 -26 c18 -19 22 -32
18 -56 -7 -33 -5 -35 25 -19 16 9 25 6 45 -13 l26 -23 -5 33 c-4 28 0 36 26
55 l31 22 -35 5 c-31 4 -35 9 -38 38 -4 40 -14 41 -29 1z"/>
<path d="M2475 4769 c-6 -30 -13 -38 -38 -46 l-32 -10 27 -13 c18 -9 28 -23
33 -47 l6 -35 27 25 c22 20 30 23 44 14 23 -15 32 -4 18 23 -9 17 -8 26 4 45
21 32 20 33 -10 27 -20 -4 -31 2 -49 24 l-23 29 -7 -36z"/>
<path d="M3410 4759 c0 -7 -12 -9 -37 -4 l-36 7 17 -27 c15 -23 16 -32 7 -53
-15 -31 -9 -37 20 -21 20 10 25 9 40 -10 22 -27 27 -27 23 5 -2 20 5 30 27 42
34 20 37 32 9 32 -10 0 -24 9 -30 20 -11 21 -40 28 -40 9z"/>
<path d="M2250 4696 c0 -30 -5 -38 -32 -53 l-33 -17 33 -9 c19 -6 32 -17 32
-26 0 -9 5 -23 10 -31 8 -13 12 -11 26 8 13 19 23 23 45 18 34 -6 35 -4 13 29
-15 23 -15 27 0 50 22 33 21 36 -16 23 -28 -10 -33 -9 -55 16 l-23 27 0 -35z"/>
<path d="M3641 4707 c-19 -21 -28 -24 -48 -16 -35 13 -35 12 -18 -21 14 -27
14 -32 -2 -56 l-17 -26 31 6 c26 6 34 3 43 -13 15 -29 30 -26 30 5 0 19 7 28
30 37 36 14 38 23 6 31 -20 5 -25 14 -28 42 l-3 36 -24 -25z"/>
<path d="M1096 4624 c-38 -46 -41 -68 -6 -46 17 10 35 -1 153 -96 74 -59 133
-108 132 -109 -1 -2 -104 4 -230 13 l-228 15 -28 -33 c-31 -37 -37 -53 -14
-44 8 3 21 9 29 12 8 3 82 -49 185 -132 163 -130 172 -139 166 -166 -4 -15 -3
-28 2 -28 13 1 86 100 79 107 -3 4 -12 1 -18 -5 -7 -7 -18 -12 -25 -12 -14 0
-296 221 -290 227 2 2 55 -1 118 -6 251 -21 379 -25 379 -10 0 8 -82 79 -181
158 -167 134 -180 147 -177 173 3 15 2 28 -2 28 -3 0 -23 -21 -44 -46z"/>
<path d="M3865 4610 c-20 -23 -45 -26 -63 -8 -17 17 -24 4 -13 -25 8 -20 6
-31 -10 -51 l-20 -26 34 0 c29 0 36 -4 41 -26 8 -29 22 -23 28 11 2 12 16 24
38 31 l35 12 -28 13 c-26 12 -28 16 -22 51 8 43 5 46 -20 18z"/>
<path d="M2037 4585 c5 -30 2 -36 -21 -46 -33 -15 -34 -29 -2 -29 18 0 27 -9
39 -37 l14 -37 18 33 c14 29 20 32 46 27 35 -7 36 0 7 31 -17 18 -19 26 -10
35 7 7 12 20 12 29 0 15 -4 16 -29 6 -25 -9 -33 -8 -49 6 -27 25 -31 21 -25
-18z"/>
<path d="M2920 4607 c-36 -18 -77 -92 -98 -177 -10 -41 -23 -75 -28 -75 -29 2
-98 29 -115 46 -21 21 -44 25 -54 9 -3 -5 -27 -10 -53 -10 -66 0 -96 -18 -100
-58 -4 -41 44 -108 124 -172 30 -24 53 -47 52 -51 -2 -4 -29 -28 -60 -53 -106
-86 -146 -175 -96 -210 31 -22 109 -20 204 5 43 11 86 22 94 22 16 2 44 -99
29 -109 -14 -9 -10 -42 7 -56 9 -7 33 -30 55 -50 73 -72 134 -43 179 85 11 30
22 73 26 96 4 23 8 41 10 41 2 0 47 -11 100 -25 110 -29 180 -32 212 -9 50 35
10 124 -96 210 -31 26 -57 50 -57 54 0 14 93 80 112 80 25 0 43 19 43 46 0 12
7 38 16 59 14 33 14 39 0 60 -10 15 -30 27 -53 31 -42 8 -160 -8 -224 -30 -23
-8 -46 -13 -49 -11 -4 2 -12 30 -19 62 -15 68 -53 153 -78 175 -27 24 -55 29
-83 15z m83 -47 c29 -34 59 -126 61 -183 1 -38 0 -39 -56 -62 l-58 -24 -57 24
c-32 12 -59 28 -61 35 -5 15 26 135 46 175 36 74 82 86 125 35z m-390 -200 c6
-22 51 -28 63 -9 7 12 60 5 100 -13 23 -11 24 -14 18 -72 -8 -65 -10 -69 -80
-107 l-42 -23 -57 44 c-63 49 -125 123 -125 151 0 30 29 49 75 49 34 0 44 -4
48 -20z m791 -2 c14 -23 -4 -72 -29 -76 -30 -6 -45 -22 -45 -46 0 -14 -17 -35
-49 -59 -26 -20 -52 -37 -56 -37 -4 0 -31 15 -60 33 -52 32 -53 32 -58 92 -3
33 -4 62 -1 64 2 2 39 14 81 27 94 28 200 29 217 2z m-501 -69 c20 -11 18 -13
-24 -35 -59 -31 -66 -30 -62 9 8 62 14 64 86 26z m181 -58 c-5 -6 -84 30 -90
41 -3 5 14 17 38 28 l43 19 6 -42 c4 -23 5 -44 3 -46z m-59 -4 l60 -32 0 -74
0 -75 -67 -35 -68 -36 -67 36 -68 35 0 74 0 73 60 33 c33 19 67 34 75 34 8 0
42 -15 75 -33z m-245 -107 c0 -27 -2 -50 -5 -50 -8 0 -75 44 -75 50 0 6 62 49
73 49 4 1 7 -21 7 -49z m386 29 c19 -11 34 -24 34 -28 0 -7 -72 -51 -84 -51
-8 0 -8 64 0 84 8 20 10 20 50 -5z m-427 -80 c40 -25 51 -38 51 -58 0 -14 3
-42 6 -62 6 -36 6 -37 -42 -52 -164 -51 -264 -49 -264 5 0 12 12 40 27 61 30
43 140 137 160 137 6 0 34 -14 62 -31z m548 -8 c103 -81 146 -154 111 -189
-18 -18 -103 -14 -189 9 -104 28 -108 32 -102 99 5 54 7 56 57 87 28 18 56 32
63 33 6 0 33 -17 60 -39z m-400 -113 c-54 -29 -67 -24 -67 26 l0 44 50 -27 49
-26 -32 -17z m196 20 c-5 -46 -6 -46 -32 -36 -84 32 -82 27 -21 58 30 15 56
27 57 27 0 -1 -1 -23 -4 -49z m-68 -43 l57 -26 -6 -37 c-19 -123 -64 -205
-113 -210 -42 -4 -75 36 -66 80 5 24 1 34 -20 51 -18 16 -28 36 -33 69 l-6 47
53 25 c68 31 66 31 134 1z"/>
<path d="M2906 4148 c-20 -29 -20 -34 4 -58 28 -28 66 -26 86 5 15 23 15 27 0
50 -21 33 -68 34 -90 3z"/>
<path d="M4058 4477 c-26 -19 -29 -20 -46 -4 -27 24 -32 21 -25 -14 5 -26 2
-35 -18 -50 l-24 -19 33 0 c28 0 33 -4 39 -30 5 -30 23 -42 23 -17 0 21 34 47
61 47 l24 1 -28 24 c-24 21 -26 28 -17 45 17 32 8 40 -22 17z"/>
<path d="M1834 4458 c5 -24 1 -37 -16 -55 l-21 -23 20 0 c12 0 33 -14 47 -31
21 -24 27 -27 31 -15 3 9 7 23 10 31 3 9 17 15 37 15 l33 1 -27 20 c-24 18
-26 23 -16 50 13 38 6 45 -24 25 -21 -14 -27 -14 -44 -1 -29 22 -37 18 -30
-17z"/>
<path d="M1723 4328 c-20 -19 -22 -20 -44 -4 -34 23 -38 20 -26 -19 8 -29 7
-38 -6 -53 -22 -25 -21 -32 3 -27 13 3 29 -5 42 -20 28 -32 34 -31 42 5 5 26
10 30 38 30 l33 0 -29 23 c-23 19 -28 29 -22 50 8 34 -6 41 -31 15z"/>
<path d="M4171 4323 c3 -23 -2 -36 -21 -51 l-24 -20 32 -7 c28 -6 32 -11 32
-38 l0 -32 25 31 c19 24 30 30 50 27 30 -6 32 7 5 32 -18 16 -18 20 -4 46 16
33 9 36 -24 13 -22 -15 -25 -15 -49 7 l-25 24 3 -32z"/>
<path d="M4330 4157 c0 -27 -6 -36 -27 -46 l-28 -13 35 -12 c31 -10 35 -14 32
-41 l-4 -30 27 25 c19 18 35 24 58 21 l32 -3 -24 25 -23 26 21 27 c27 34 21
40 -18 20 -29 -16 -31 -15 -47 9 -22 34 -34 31 -34 -8z"/>
<path d="M1556 4161 c-15 -16 -22 -18 -42 -9 -32 15 -39 5 -18 -27 16 -25 16
-27 -6 -50 l-23 -25 36 0 c26 0 39 -6 47 -20 16 -29 28 -24 32 13 2 27 8 33
31 35 33 4 35 14 5 27 -16 7 -24 20 -26 43 -4 37 -12 40 -36 13z"/>
<path d="M1985 4128 c-69 -82 -86 -192 -39 -259 14 -21 41 -45 60 -54 28 -13
34 -21 34 -47 0 -50 77 -119 165 -148 225 -74 355 -252 285 -390 -26 -51 -25
-83 3 -116 61 -70 154 -1 180 134 6 30 5 32 -14 22 -12 -7 -18 -18 -15 -28 7
-21 -27 -88 -57 -113 -27 -23 -46 -23 -75 -3 -22 15 -29 54 -16 87 5 13 8 13
25 -4 26 -26 63 -24 96 7 l28 26 -28 -16 c-37 -22 -81 -18 -85 9 -2 20 9 40
73 129 59 81 45 146 -53 245 -55 57 -85 77 -172 118 -125 59 -167 92 -176 137
-10 57 -39 94 -78 101 -54 11 -70 36 -76 118 -6 85 -22 96 -65 45z m81 -167
l31 -26 -24 -52 c-13 -29 -30 -53 -37 -53 -7 0 -25 9 -40 21 -75 59 -75 169 0
259 l29 34 5 -78 c5 -72 7 -80 36 -105z m144 -166 c15 -18 7 -19 -20 -3 -16
10 -22 10 -32 -1 -10 -11 -10 -14 -1 -18 7 -3 23 -13 35 -23 l23 -19 -27 -28
-28 -27 -22 21 c-12 13 -19 26 -14 30 4 4 11 1 16 -6 10 -17 40 -7 40 13 0 7
-9 16 -20 19 -19 5 -27 36 -13 50 12 12 50 7 63 -8z m90 -61 c0 -3 -8 -3 -18
0 -37 12 -71 -52 -38 -72 21 -12 20 -12 -4 -10 -35 4 -37 38 -5 77 22 25 30
29 46 21 10 -6 19 -13 19 -16z m9 -58 c-21 -35 -29 -44 -29 -28 0 12 41 74 46
69 3 -2 -5 -21 -17 -41z m91 -2 c0 -3 -9 -3 -19 1 -21 6 -38 -10 -21 -20 18
-11 11 -23 -10 -18 -26 7 -25 -4 3 -28 26 -22 3 -27 -25 -5 -23 17 -23 23 8
63 21 28 28 31 45 23 10 -6 19 -13 19 -16z m56 -63 c37 34 28 9 -13 -36 l-36
-40 7 44 7 44 -21 -24 -21 -24 12 25 c24 51 34 56 37 21 l3 -33 25 23z m57
-29 c-33 -5 -49 -29 -35 -53 10 -15 9 -19 -2 -19 -21 0 -29 17 -22 46 7 27 42
45 66 35 11 -4 9 -7 -7 -9z m61 -58 c11 -28 6 -40 -9 -20 -7 10 -19 15 -25 11
-8 -5 -8 -11 1 -21 8 -10 8 -14 0 -14 -6 0 -11 5 -11 11 0 5 -5 7 -10 4 -6 -3
-7 -18 -4 -33 l6 -27 -17 23 c-17 23 -16 25 11 53 31 33 49 37 58 13z m-37
-110 c-3 -3 -12 -4 -19 -1 -8 3 -5 6 6 6 11 1 17 -2 13 -5z"/>
<path d="M3856 4112 c-2 -4 -1 -14 5 -22 14 -23 11 -97 -5 -113 -8 -8 -37 -17
-64 -21 -56 -7 -76 -25 -86 -75 -11 -59 -31 -77 -168 -151 -159 -86 -209 -125
-248 -193 -56 -98 -45 -175 31 -224 19 -12 45 -31 59 -41 l25 -20 -23 -25
c-12 -13 -41 -29 -62 -36 -38 -11 -80 -54 -67 -68 9 -8 139 14 171 28 14 7 31
27 39 46 l13 35 13 -56 c7 -30 21 -66 32 -80 15 -19 19 -34 14 -54 -3 -16 -1
-41 5 -57 9 -23 7 -36 -11 -74 -11 -25 -28 -54 -37 -63 -8 -10 -10 -18 -4 -18
17 0 80 127 71 142 -5 7 -9 35 -9 61 0 32 -7 57 -20 75 -29 40 -45 128 -31
179 12 45 54 83 90 83 28 0 27 -19 -4 -64 -29 -43 -30 -46 -11 -46 24 0 29
-19 12 -45 -16 -24 -16 -25 8 -25 35 0 43 -20 18 -41 -26 -20 -28 -29 -7 -29
24 0 30 -29 9 -44 -17 -13 -16 -14 5 -26 l23 -12 -21 -22 c-27 -29 -27 -39 2
-31 17 5 19 4 7 -4 -8 -6 -11 -11 -6 -11 5 0 3 -7 -4 -15 -9 -11 -8 -19 4 -37
21 -29 20 -35 -5 -41 -20 -5 -20 -7 -4 -31 l17 -26 -31 0 c-29 0 -30 -1 -20
-26 13 -36 4 -41 -32 -20 -23 13 -33 15 -38 7 -4 -6 -15 -9 -24 -5 -12 4 -18
-1 -22 -19 -5 -17 -12 -24 -21 -20 -11 4 -14 35 -14 154 l0 149 -108 0 c-100
0 -110 2 -128 23 -26 31 -45 65 -51 96 -13 56 4 191 23 191 18 0 18 10 -2 38
-8 12 -24 22 -35 22 -16 0 -18 5 -13 25 6 24 4 25 -33 25 -22 0 -62 7 -89 15
-27 8 -72 15 -100 15 -43 0 -58 -6 -96 -34 -50 -38 -108 -118 -108 -148 0 -11
5 -28 11 -40 11 -20 11 -20 36 3 24 24 25 24 36 4 14 -27 59 -71 77 -77 21 -7
4 -41 -55 -105 l-47 -53 -129 0 -129 0 -1 -102 c-1 -182 -2 -192 -21 -196 -13
-2 -18 3 -18 18 0 18 -4 21 -24 16 -15 -4 -26 -1 -28 6 -3 8 -11 7 -28 -5 -35
-24 -43 -21 -36 13 5 27 3 30 -20 30 -19 0 -25 4 -20 15 3 8 9 22 12 30 4 11
0 15 -15 15 -25 0 -26 4 -6 34 12 17 13 30 6 49 -8 21 -7 25 4 20 19 -7 19 11
0 27 -20 16 -19 36 1 44 15 6 15 8 -1 26 -18 20 -13 40 11 40 21 0 17 15 -8
32 -26 18 -16 38 19 38 25 0 25 1 9 25 -18 27 -14 45 10 45 18 0 18 0 -12 54
-22 40 -24 47 -10 52 28 11 78 -17 92 -52 25 -59 12 -167 -24 -207 -10 -11
-19 -46 -23 -88 -6 -65 -4 -75 23 -125 16 -29 33 -56 37 -59 5 -2 -6 23 -24
58 -23 44 -30 68 -24 82 4 11 8 37 8 57 1 21 10 55 21 76 46 89 43 201 -8 265
-48 60 -117 128 -177 177 -100 79 -450 284 -522 305 -20 5 -23 3 -23 -21 0
-40 52 -122 119 -189 34 -33 61 -63 61 -67 0 -4 -11 -8 -25 -8 -14 0 -25 -3
-25 -6 0 -11 103 -134 112 -134 4 0 8 -4 8 -8 0 -4 -16 -6 -35 -4 -46 5 -46
-11 2 -60 l37 -38 -27 0 c-40 0 -33 -18 27 -76 l54 -52 -36 -9 c-52 -12 -52
-36 -1 -70 34 -22 39 -29 23 -31 -27 -4 -64 -24 -64 -34 0 -5 24 -20 52 -32
46 -20 50 -24 30 -30 -39 -13 -21 -66 22 -66 20 0 20 -1 -3 -19 -35 -27 -25
-55 22 -59 20 -2 37 -5 37 -8 0 -3 -10 -18 -21 -33 -26 -35 -18 -51 22 -51 29
0 30 -1 15 -22 -28 -39 -21 -51 25 -43 l42 7 -17 -23 c-9 -13 -16 -34 -16 -47
0 -22 3 -24 29 -19 29 6 30 6 24 -30 -6 -35 -5 -36 20 -30 14 4 33 10 42 13
15 6 16 3 11 -24 -9 -38 5 -47 44 -27 l30 15 -7 -45 c-6 -48 1 -54 33 -30 28
21 30 19 26 -20 -5 -39 9 -45 45 -20 21 15 22 14 33 -25 11 -42 18 -48 38 -28
9 9 12 -5 12 -65 0 -42 -3 -77 -7 -77 -15 0 -75 -41 -70 -47 3 -3 18 4 33 16
31 24 44 27 44 8 0 -20 -45 -41 -71 -34 -28 8 -54 -10 -39 -28 7 -8 2 -19 -15
-35 -14 -13 -25 -30 -25 -37 0 -16 -48 -38 -106 -47 -36 -6 -41 -5 -52 18 -16
35 -56 60 -86 52 -14 -3 -37 -22 -52 -41 -14 -19 -35 -35 -44 -35 -10 0 -34
-15 -53 -33 -28 -26 -34 -38 -30 -61 3 -15 12 -30 19 -33 8 -3 14 -15 14 -27
0 -26 7 -35 47 -63 41 -29 66 -28 133 5 47 23 56 32 66 66 10 38 13 40 92 67
l82 28 25 -25 c31 -31 68 -31 148 1 54 22 77 25 148 23 l84 -3 5 -35 c4 -24
10 -34 21 -32 8 1 25 -7 37 -18 12 -11 25 -20 31 -20 5 0 12 -7 15 -16 4 -10
13 -13 25 -9 25 8 33 -26 17 -73 -7 -20 -23 -79 -36 -131 -18 -72 -25 -89 -32
-76 -11 19 3 89 27 135 18 36 31 110 18 110 -5 0 -20 -26 -32 -57 -27 -67 -75
-157 -103 -193 l-20 -25 7 40 c4 22 21 57 37 79 41 51 90 152 86 173 -7 40
-38 14 -107 -89 -40 -60 -76 -108 -82 -108 -12 0 12 48 44 86 43 53 87 122 87
138 0 32 -36 15 -88 -41 l-53 -58 50 65 c28 36 51 68 51 72 0 35 -100 -50
-152 -129 -46 -68 -87 -167 -75 -179 3 -4 23 3 43 15 32 19 36 20 29 4 -15
-33 -18 -83 -6 -83 7 0 36 15 64 33 l53 34 -24 -49 c-24 -50 -27 -108 -5 -115
6 -2 30 14 53 36 23 21 38 32 34 23 -3 -10 -9 -41 -12 -69 -6 -66 14 -80 57
-39 l28 27 7 -24 c3 -13 23 -44 45 -68 l39 -44 25 23 c13 13 33 40 43 60 11
20 20 39 21 41 2 2 14 -8 28 -23 14 -15 31 -26 38 -23 19 6 25 58 11 105 l-12
43 39 -36 c21 -19 46 -35 54 -35 22 0 19 67 -5 115 -11 22 -20 40 -20 42 0 2
25 -13 55 -33 31 -19 59 -32 64 -30 11 7 -3 74 -18 89 -25 25 -9 26 22 3 61
-47 71 -31 37 55 -37 93 -149 229 -189 229 -20 0 -11 -17 39 -80 28 -34 50
-65 50 -68 0 -5 -78 82 -98 110 -14 20 -37 24 -47 8 -8 -12 35 -89 78 -140 34
-42 67 -111 42 -90 -13 10 -100 139 -141 207 -10 15 -13 16 -28 4 -9 -7 -16
-19 -16 -26 0 -18 58 -125 92 -167 16 -21 32 -54 35 -75 l6 -38 -20 25 c-32
41 -64 101 -94 175 -28 69 -49 94 -49 57 0 -11 15 -63 34 -116 25 -70 32 -103
27 -123 -9 -33 -8 -36 -46 110 -30 118 -44 149 -45 97 0 -72 21 -214 41 -269
29 -82 33 -100 13 -66 -10 17 -26 59 -35 95 l-17 65 -1 -100 c-1 -55 -5 -106
-10 -113 -14 -22 -23 33 -16 92 4 30 2 70 -4 94 -8 27 -9 75 -5 132 6 75 11
94 30 116 13 14 24 30 24 36 0 7 5 6 15 -2 12 -10 16 -9 21 4 3 9 10 16 15 16
4 0 20 11 34 24 15 14 33 22 40 19 9 -3 16 5 20 24 4 15 8 34 11 41 2 8 28 12
82 12 63 0 91 -5 136 -25 74 -33 139 -34 162 -2 l18 23 82 -30 c70 -26 87 -38
116 -75 61 -81 121 -108 157 -72 12 12 25 21 30 21 13 0 30 24 34 47 1 11 11
28 20 37 37 37 13 84 -63 121 -19 10 -45 30 -58 46 -31 38 -74 39 -111 1 -15
-15 -30 -33 -32 -40 -6 -18 -128 19 -141 43 -6 11 -22 32 -36 48 -14 15 -20
27 -14 27 26 0 9 22 -43 56 l-55 37 0 67 c0 57 3 68 16 66 11 -1 20 12 28 38
10 35 13 37 25 22 7 -9 22 -16 32 -16 15 0 19 7 19 37 0 34 1 35 18 20 32 -29
44 -21 41 27 l-4 44 27 -14 c42 -22 51 -18 46 21 -3 29 -1 34 11 29 56 -23 78
-13 62 29 -10 25 -9 25 25 20 38 -6 43 5 19 47 -21 36 -19 39 19 33 40 -6 55
10 32 36 -23 25 -20 31 12 31 16 0 32 3 35 6 7 8 -7 36 -28 58 -15 14 -12 16
25 22 51 8 60 27 30 60 -22 23 -23 24 -4 24 46 0 58 42 18 63 l-26 13 40 12
c22 7 46 19 53 28 11 14 10 18 -6 30 -10 8 -27 14 -37 14 -10 0 -18 5 -18 10
0 6 4 10 9 10 13 0 71 50 71 61 0 5 -20 14 -45 20 l-45 11 38 28 c38 27 72 70
72 90 0 5 -9 10 -21 10 -18 0 -17 4 15 42 20 23 36 46 36 51 0 5 -18 7 -41 4
l-40 -5 44 47 c64 68 84 101 67 111 -7 4 -20 5 -29 2 -9 -3 15 28 52 69 76 82
127 161 127 198 0 20 -3 22 -27 17 -71 -18 -402 -212 -524 -308 -99 -78 -197
-188 -206 -229 -6 -31 -23 -40 -23 -12 0 9 -11 35 -25 59 -20 33 -23 48 -16
67 17 43 103 106 241 174 181 88 200 103 200 154 0 21 5 39 11 39 23 0 72 44
86 78 19 45 19 129 0 175 -20 46 -94 86 -111 59z m55 -22 c45 -25 64 -125 35
-194 -7 -18 -28 -44 -47 -58 l-33 -26 -35 26 c-57 41 -91 74 -85 83 3 5 27 11
54 15 28 4 58 15 71 27 18 17 21 28 17 78 -2 33 -3 59 0 59 2 0 12 -5 23 -10z
m-1902 -569 c35 -29 80 -73 101 -100 21 -26 56 -63 79 -83 22 -19 41 -39 41
-43 0 -5 -5 -4 -12 3 -14 14 -32 16 -23 2 4 -7 -2 -7 -19 0 -15 5 -28 6 -31 0
-4 -7 22 -30 74 -67 2 -2 1 -6 -2 -9 -10 -10 -88 47 -100 73 -14 32 -4 38 41
25 l37 -11 -39 32 c-287 232 -454 399 -472 472 -6 25 17 5 127 -106 74 -75
163 -160 198 -188z m2206 261 c-24 -44 -194 -222 -291 -303 -72 -61 -236 -189
-241 -189 -4 0 23 29 59 64 36 35 73 76 83 92 9 16 46 51 80 78 62 48 138 120
264 250 36 36 66 64 69 62 2 -3 -8 -27 -23 -54z m-2469 34 c10 -8 15 -18 11
-22 -4 -4 -17 2 -29 14 -25 25 -13 30 18 8z m2444 -6 c-14 -10 -27 -16 -30
-13 -6 6 30 33 44 33 6 0 0 -9 -14 -20z m-2268 -93 c68 -40 146 -86 173 -102
70 -40 201 -148 186 -153 -7 -2 -25 5 -40 17 -14 11 -46 33 -71 48 -25 15
-101 64 -169 110 -68 46 -126 82 -128 80 -2 -3 7 -12 21 -20 13 -9 55 -44 92
-77 54 -47 69 -67 70 -90 2 -30 1 -30 -70 33 -39 35 -84 74 -100 88 -36 30
-116 128 -116 141 0 15 16 7 152 -75z m1844 26 c-8 -9 -46 32 -46 50 0 7 12
-1 27 -15 15 -15 23 -31 19 -35z m337 -11 c-22 -26 -84 -87 -138 -136 -92 -82
-99 -87 -107 -66 -7 18 1 30 47 72 31 28 74 64 95 79 22 16 40 32 40 35 0 4
-6 2 -12 -3 -7 -5 -67 -45 -133 -88 -66 -43 -153 -100 -194 -127 -41 -27 -76
-46 -79 -43 -3 3 1 11 10 18 8 6 46 37 84 68 96 78 416 267 423 248 2 -6 -15
-31 -36 -57z m-373 -44 c0 -12 -14 -10 -28 4 -15 15 -43 -8 -35 -30 5 -15 4
-15 -10 -2 -8 8 -18 26 -22 40 -7 22 -6 23 8 12 23 -19 40 -5 32 27 -6 25 -5
24 24 -9 17 -19 30 -38 31 -42z m70 22 c0 -5 -4 -10 -10 -10 -5 0 -10 5 -10
10 0 6 5 10 10 10 6 0 10 -4 10 -10z m-213 -30 c-16 -41 3 -62 33 -35 24 21
27 4 4 -20 -25 -25 -49 -15 -52 24 -4 37 3 61 17 61 5 0 5 -12 -2 -30z m-66
-24 c-10 -12 -9 -20 4 -40 10 -15 13 -26 7 -26 -6 0 -16 9 -22 21 -9 16 -18
19 -38 15 l-27 -6 28 25 c31 28 69 36 48 11z m-61 -81 c6 -8 10 -20 8 -26 -2
-6 -12 0 -21 15 -18 27 -8 37 13 11z m-64 -19 c3 -8 14 -16 26 -19 15 -4 18
-11 13 -29 -9 -28 -34 -58 -49 -58 -17 1 -66 48 -66 64 0 15 45 56 62 56 5 0
11 -6 14 -14z m-1477 -37 c56 -44 69 -63 20 -29 -16 12 -32 20 -35 17 -3 -3
37 -35 88 -71 145 -101 139 -97 93 -81 -22 8 -45 14 -52 15 -18 0 -125 74
-154 106 -15 16 -34 41 -44 57 -17 27 -17 27 8 27 14 0 47 -18 76 -41z m2171
31 c0 -19 -94 -112 -148 -147 -30 -18 -68 -37 -85 -40 -18 -3 -38 -10 -44 -16
-7 -5 -13 -7 -13 -4 0 3 42 35 93 70 101 71 153 119 82 77 l-40 -23 44 39 c24
21 51 42 60 46 25 10 51 9 51 -2z m-1927 -56 c26 -14 47 -28 47 -33 0 -5 3
-17 6 -26 6 -14 1 -13 -27 4 -61 38 -67 19 -13 -41 19 -22 33 -43 29 -46 -15
-15 -135 140 -135 173 0 9 38 -4 93 -31z m1677 23 c0 -20 -54 -98 -94 -136
-47 -45 -47 -23 0 29 45 49 37 63 -18 31 -34 -19 -40 -20 -35 -6 4 9 7 21 7
26 0 9 112 66 133 68 4 1 7 -5 7 -12z m-1517 -97 c15 -7 27 -17 27 -22 0 -5
-9 -4 -19 2 -11 5 -30 10 -43 10 -22 -1 -22 -1 -4 -15 11 -8 16 -18 12 -22 -9
-9 -66 55 -66 74 0 14 13 10 93 -27z m1357 23 c0 -11 -44 -73 -52 -73 -12 0
-9 15 4 28 15 15 -9 16 -47 2 -42 -16 -19 9 29 31 43 19 66 24 66 12z m-839
-71 c23 -53 25 -87 5 -79 -38 15 -86 18 -106 7 -12 -6 -24 -10 -26 -7 -12 11
10 57 48 101 45 52 45 52 79 -22z m-878 17 c18 -8 23 -18 23 -45 -1 -19 -2
-34 -4 -34 -9 0 -90 61 -107 80 l-20 23 42 -7 c23 -3 53 -11 66 -17z m1005 4
c-2 -10 -13 -19 -26 -21 -30 -5 -28 -18 6 -30 20 -8 22 -11 8 -11 -11 -1 -28
6 -38 16 -19 17 -25 39 -8 28 6 -3 10 3 10 14 0 16 6 21 26 21 19 0 25 -5 22
-17z m1082 8 c0 -5 -21 -25 -47 -44 -73 -52 -75 -52 -67 -23 4 18 2 26 -7 26
-24 0 13 28 51 38 46 13 70 14 70 3z m-1757 -63 c24 -28 22 -45 -3 -23 -25 23
-28 0 -3 -27 20 -22 10 -36 -12 -18 -15 13 -55 82 -55 95 0 12 56 -9 73 -27z
m1397 19 c0 -7 -14 -35 -31 -61 -22 -36 -33 -46 -42 -37 -8 8 -5 17 13 36 28
30 19 46 -11 19 -21 -19 -21 -19 -8 8 6 15 24 32 38 37 36 13 41 13 41 -2z
m-1616 -17 c14 -5 26 -14 26 -20 0 -6 -12 -4 -29 5 -17 8 -32 11 -35 6 -6 -9
62 -76 107 -106 44 -29 30 -38 -15 -11 -52 31 -128 104 -128 123 0 15 38 17
74 3z m1846 0 c0 -26 -111 -124 -162 -143 -26 -9 -22 6 6 23 78 49 154 137 99
115 -10 -4 -24 -9 -30 -12 -7 -3 -13 0 -13 5 0 11 26 18 73 21 15 0 27 -3 27
-9z m-970 -30 c7 0 11 -3 7 -6 -10 -10 -45 6 -52 23 -5 15 -4 15 13 0 10 -9
25 -17 32 -17z m190 -11 c0 -19 -5 -29 -15 -29 -17 0 -20 16 -5 25 6 4 8 16 4
27 -4 14 -2 18 5 14 6 -4 11 -20 11 -37z m660 13 c0 -19 -41 -62 -77 -81 -41
-21 -38 -11 7 28 46 40 50 62 8 41 l-23 -11 24 20 c29 26 61 27 61 3z m-1832
-17 c28 -9 54 -20 58 -26 6 -10 -11 -8 -53 8 -7 3 -13 1 -13 -3 0 -5 29 -27
65 -49 65 -40 84 -62 43 -49 -57 17 -90 36 -132 75 -68 62 -61 71 32 44z
m2041 -16 c-25 -35 -95 -83 -146 -100 -58 -19 -48 -2 27 46 72 46 87 65 35 45
-35 -13 -45 -6 -14 11 30 16 69 27 97 28 l23 1 -22 -31z m-1179 -1 c28 -16 40
-30 40 -46 0 -22 -1 -22 -29 -8 -15 8 -35 26 -45 40 -28 43 -22 46 34 14z
m-562 -29 c42 -31 53 -49 29 -49 -25 0 -87 51 -87 72 0 15 15 8 58 -23z m818
4 c-7 -7 -26 7 -26 19 0 6 6 6 15 -2 9 -7 13 -15 11 -17z m614 8 c-14 -26 -64
-61 -87 -61 -13 1 -7 11 26 40 48 44 79 54 61 21z m-663 -46 c-7 -17 -37 -21
-37 -5 0 6 7 10 15 10 8 0 15 5 15 12 0 6 3 9 6 5 4 -3 4 -13 1 -22z m83 15
c13 -8 13 -10 -2 -10 -9 0 -20 5 -23 10 -8 13 5 13 25 0z m298 -47 c-8 -7 -47
-21 -88 -32 l-74 -18 28 23 c15 13 39 24 53 24 15 0 36 11 52 29 25 28 26 28
34 8 5 -13 3 -25 -5 -34z m-1163 9 c18 -13 36 -52 25 -52 -17 0 -65 27 -79 44
-12 14 -10 16 15 16 16 0 34 -4 39 -8z m1446 -16 c-13 -14 -36 -29 -51 -35
-26 -9 -27 -8 -16 12 22 43 28 47 58 47 l31 0 -22 -24z m-1660 -11 l34 -14
-43 -1 c-53 0 -47 -14 12 -29 66 -16 71 -35 9 -29 -49 5 -151 53 -139 65 5 5
33 12 87 22 4 0 22 -6 40 -14z m159 6 c0 -4 -12 -6 -27 -4 -26 4 -24 2 12 -21
48 -31 40 -34 -15 -6 -55 28 -58 40 -11 40 23 0 41 -4 41 -9z m1590 1 c0 -11
-74 -52 -91 -52 -8 1 3 10 24 21 43 23 48 34 11 25 -17 -5 -23 -3 -19 4 7 12
75 14 75 2z m188 -8 c31 -6 20 -19 -38 -49 -31 -16 -65 -25 -92 -24 l-43 1 40
19 c22 10 48 19 58 19 35 0 16 20 -20 20 l-38 1 30 13 c28 12 47 12 103 0z
m-878 -29 c0 -8 -7 -15 -15 -15 -26 0 -18 20 13 29 1 1 2 -6 2 -14z m-219 -18
c-13 -13 -26 -3 -16 12 3 6 11 8 17 5 6 -4 6 -10 -1 -17z m-701 -6 c0 -11 -51
-21 -64 -13 -5 3 -1 9 10 13 27 11 54 11 54 0z m1598 3 c41 -11 27 -24 -40
-39 -16 -3 -14 0 7 10 27 13 28 14 7 15 -13 0 -20 4 -17 10 7 12 12 12 43 4z
m-1516 -21 c-10 -4 -10 -8 -1 -19 18 -22 -14 -18 -42 6 l-24 19 40 0 c22 0 34
-3 27 -6z m573 -2 c3 -5 1 -12 -5 -16 -5 -3 -10 1 -10 9 0 18 6 21 15 7z m875
0 c0 -10 -62 -42 -69 -35 -3 3 1 9 8 13 7 5 10 14 7 20 -5 7 4 11 23 11 17 0
31 -4 31 -9z m-1526 -10 c3 -4 -6 -6 -19 -3 -14 2 -25 6 -25 8 0 8 39 4 44 -5z
m890 -13 c-3 -5 -12 -4 -20 3 -19 16 -18 18 6 12 11 -3 17 -9 14 -15z m-944 0
c0 -5 -24 -8 -54 -8 -71 0 -82 -17 -17 -26 28 -4 55 -12 60 -18 13 -16 -135
-3 -171 14 -37 18 -35 26 10 37 44 11 172 11 172 1z m760 -3 c-7 -8 -20 -15
-29 -15 -11 0 -8 5 9 14 33 19 35 19 20 1z m1068 0 c18 -4 31 -12 29 -18 -6
-21 -99 -47 -147 -42 -44 4 -45 4 -10 -6 19 -6 52 -15 73 -20 39 -10 49 -32
20 -43 -19 -8 -120 11 -128 23 -2 5 17 7 43 5 49 -4 43 3 -20 26 -33 11 -28
40 7 40 12 0 37 3 55 6 46 10 17 24 -48 24 -29 0 -51 3 -49 8 6 9 131 7 175
-3z m-1133 -15 c-3 -5 -10 -10 -16 -10 -5 0 -9 5 -9 10 0 6 7 10 16 10 8 0 12
-4 9 -10z m109 -2 c-7 -11 -34 -10 -34 1 0 6 9 9 19 8 11 0 17 -5 15 -9z m251
2 c3 -5 -1 -10 -9 -10 -9 0 -16 5 -16 10 0 6 4 10 9 10 6 0 13 -4 16 -10z
m-972 -11 c-30 -9 -46 -29 -23 -29 6 0 10 -4 10 -9 0 -13 -53 3 -58 17 -5 15
33 31 73 30 l30 0 -32 -9z m864 5 c-3 -3 -12 -4 -19 -1 -8 3 -5 6 6 6 11 1 17
-2 13 -5z m672 -5 c39 -14 39 -24 0 -38 -27 -9 -30 -9 -24 9 5 15 -1 21 -27
29 -30 8 -31 9 -7 10 14 1 40 -4 58 -10z m-1493 -24 c-3 -8 0 -15 6 -15 6 0 9
-3 5 -6 -8 -8 -47 5 -47 16 0 5 8 11 18 13 9 3 19 5 21 6 2 0 1 -6 -3 -14z
m1149 4 c3 -4 8 -891 6 -1031 l-1 -28 -455 0 -455 0 0 529 c0 344 4 531 10
533 15 5 889 2 895 -3z m289 -8 c3 -5 -1 -12 -10 -15 -25 -10 -34 -7 -28 9 7
17 30 20 38 6z m-1594 -21 c-8 -5 -23 -10 -32 -10 -9 0 -20 -5 -24 -12 -5 -8
6 -10 42 -5 l49 6 -33 -15 c-40 -18 -109 -21 -124 -6 -16 16 -7 23 49 38 61
16 95 18 73 4z m166 -40 c35 0 30 -14 -21 -56 -45 -38 -53 -54 -18 -36 11 6
25 7 32 3 12 -8 5 -16 -109 -111 -24 -20 -24 -21 -2 -10 34 17 37 6 6 -19 -27
-21 -74 -29 -74 -12 0 5 28 35 62 66 35 31 55 53 45 50 -11 -5 -17 -2 -17 6 0
25 40 79 65 89 32 12 32 22 0 14 -21 -5 -25 -3 -25 14 0 23 23 36 28 15 2 -7
14 -13 28 -13z m1444 -5 c0 -15 37 -31 48 -20 3 3 1 15 -6 25 -10 16 -10 20 0
20 7 0 21 -16 30 -35 l18 -35 -28 0 c-15 0 -36 6 -47 14 -21 14 -75 30 -75 22
0 -3 15 -12 34 -21 32 -16 56 -50 56 -82 0 -9 -6 -13 -15 -9 -27 10 -16 -3 25
-30 38 -25 96 -91 88 -99 -9 -9 -76 16 -93 35 -19 21 -7 28 13 8 6 -6 14 -9
17 -7 3 3 -24 29 -60 58 -36 28 -65 48 -65 43 0 -5 7 -15 16 -23 19 -15 47
-69 41 -76 -3 -2 -14 0 -24 5 -30 17 -97 72 -86 72 6 0 22 -9 36 -20 34 -27
41 -25 21 5 -9 15 -13 32 -9 46 6 17 12 20 38 15 l31 -6 -42 38 c-48 45 -53
62 -16 62 19 0 25 4 20 15 -4 13 -2 14 14 5 11 -6 20 -17 20 -25z m-1550 6
c-11 -22 0 -34 24 -25 9 3 16 1 16 -4 0 -11 -67 -28 -75 -20 -9 9 20 68 33 68
9 0 10 -5 2 -19z m-40 -16 c0 -3 -12 -17 -26 -30 l-27 -25 41 0 c56 0 60 -15
13 -47 -46 -32 -53 -48 -16 -39 26 7 34 -7 13 -20 -13 -8 -68 -7 -77 1 -8 9
44 57 78 71 44 18 33 30 -14 14 -36 -12 -115 -5 -115 10 0 12 49 45 85 58 36
12 45 14 45 7z m1786 -46 c16 -17 16 -22 4 -29 -22 -14 -80 -11 -115 5 l-30
13 39 1 40 1 -22 20 c-12 12 -22 25 -22 30 0 14 86 -19 106 -41z m-113 -41
c35 -20 87 -70 81 -80 -8 -12 -58 -10 -72 4 -18 18 -15 27 8 21 11 -3 20 0 20
6 0 6 -3 11 -7 11 -11 0 -70 49 -60 50 4 0 17 -6 30 -12z m-1527 -42 c-23 -36
-20 -41 10 -17 15 12 31 21 36 21 11 0 -50 -53 -79 -69 -20 -10 -23 -9 -23 8
0 11 14 36 31 56 35 39 51 40 25 1z m33 -72 c-20 -24 -1 -29 24 -6 13 12 27
22 32 22 5 0 -10 -18 -33 -40 -22 -22 -47 -40 -54 -40 -7 0 -24 -19 -37 -43
l-24 -42 36 28 37 28 -12 -26 c-12 -27 -54 -55 -82 -55 -17 0 -12 18 25 97 25
55 50 78 42 40 -3 -12 8 3 23 33 19 39 28 50 31 37 3 -10 -1 -25 -8 -33z
m1335 8 c41 -82 24 -95 -44 -32 -45 42 -47 55 -3 20 30 -24 39 -20 24 8 -6 12
-11 26 -11 32 0 17 19 2 34 -28z m-1220 19 c17 -7 17 -9 -9 -29 -33 -26 -40
-23 -31 13 7 27 10 28 40 16z m1131 -28 c8 -29 -5 -29 -41 -1 l-28 22 25 7
c28 7 34 3 44 -28z m-1341 -12 c3 -4 -3 -16 -14 -26 -11 -10 -20 -23 -20 -28
0 -6 9 -2 20 8 23 21 26 9 5 -22 -14 -20 -75 -49 -75 -35 0 4 14 31 30 60 29
50 43 61 54 43z m286 -10 c0 -16 -38 -61 -52 -61 -9 0 -11 41 -3 62 7 18 55
17 55 -1z m1270 -28 c28 -44 38 -73 24 -73 -14 0 -51 24 -66 44 -23 28 -23 43
0 23 31 -28 38 -19 9 11 -25 26 -27 42 -5 42 5 0 22 -21 38 -47z m-276 5 c5
-15 7 -31 3 -34 -11 -12 -57 26 -57 47 0 31 42 21 54 -13z m221 -38 c34 -67
43 -100 28 -100 -17 0 -72 40 -83 60 -21 38 -20 15 1 -39 11 -30 18 -56 15
-58 -10 -10 -49 10 -81 43 -40 40 -43 38 -16 -8 20 -35 37 -98 26 -98 -4 0
-20 9 -36 21 -32 22 -39 42 -12 32 16 -6 16 -5 0 17 -9 14 -17 42 -17 63 l0
38 44 -35 c52 -43 61 -45 43 -8 -14 27 -30 102 -21 102 2 0 9 -12 15 -26 5
-15 12 -24 16 -21 3 3 21 -5 39 -20 37 -27 42 -25 20 10 -13 21 -29 97 -20 97
2 0 20 -31 39 -70z m-1285 52 c0 -13 -79 -86 -86 -79 -11 11 6 79 19 74 7 -2
11 -13 10 -23 -1 -16 2 -14 20 8 22 27 37 35 37 20z m1107 -19 c13 -16 20 -21
17 -12 -3 10 1 19 10 22 11 5 17 -3 22 -29 3 -19 4 -38 0 -41 -7 -7 -63 43
-77 70 -15 26 3 20 28 -10z m-1221 -82 c-26 -50 -18 -55 28 -17 24 20 46 36
48 36 8 0 0 -68 -10 -87 -20 -36 -14 -38 18 -8 38 36 47 27 26 -25 -18 -46
-19 -50 -8 -50 4 0 14 13 23 29 9 15 26 31 39 34 20 5 21 3 15 -21 -14 -56
-17 -98 -6 -82 15 21 15 -5 0 -32 -15 -29 -29 -6 -29 50 0 50 -9 53 -32 12
-22 -39 -51 -41 -42 -2 4 15 13 40 22 56 l14 30 -43 -37 c-23 -20 -46 -37 -50
-37 -11 0 7 67 30 105 11 19 16 35 11 35 -5 0 -14 -9 -20 -19 -9 -18 -69 -61
-84 -61 -14 0 -4 37 27 104 27 60 32 67 35 44 2 -15 -4 -40 -12 -57z m130 1
l-37 -37 3 35 c3 29 6 35 25 32 12 -2 24 2 28 8 4 6 10 9 13 5 3 -3 -11 -22
-32 -43z m1050 28 c15 0 24 -8 28 -26 4 -15 4 -29 1 -32 -7 -7 -54 37 -67 63
-9 16 -8 18 3 8 7 -7 23 -13 35 -13z m-1000 -86 c-3 -8 -9 -14 -14 -14 -9 0
-6 46 6 90 5 21 7 17 10 -19 2 -24 1 -50 -2 -57z m963 -2 c0 -13 -3 -20 -9
-17 -5 3 -9 27 -9 53 1 42 2 44 9 17 4 -16 8 -40 9 -53z m72 -30 c-6 -2 -4
-17 5 -37 8 -19 14 -44 14 -55 0 -17 -3 -19 -18 -11 -10 5 -24 22 -32 36 l-14
27 -11 -53 c-5 -30 -14 -54 -19 -54 -5 0 -10 32 -11 72 -2 79 8 86 52 34 27
-30 29 -20 8 39 -20 56 -19 58 11 29 14 -13 21 -25 15 -27z m-45 -343 c41 -25
43 -32 7 -23 -31 8 -53 22 -53 35 0 13 9 11 46 -12z m-986 -29 c0 -14 -7 -20
-22 -20 -20 0 -21 1 -3 20 10 11 20 20 22 20 1 0 3 -9 3 -20z m960 -5 c10 -12
10 -15 -4 -15 -9 0 -16 7 -16 15 0 8 2 15 4 15 2 0 9 -7 16 -15z m-1031 -41
c-7 -9 -8 -14 -1 -14 6 0 14 5 17 10 7 12 55 14 55 3 0 -17 -68 -53 -98 -53
-39 0 -41 15 -5 52 26 27 55 29 32 2z m1141 -46 c0 -4 -16 -8 -36 -8 -41 0
-94 27 -94 48 0 14 13 13 52 -3 13 -5 15 -2 11 17 -5 21 -2 20 31 -11 20 -19
36 -39 36 -43z m-1070 2 c0 -11 -7 -20 -15 -20 -18 0 -19 12 -3 28 16 16 18
15 18 -8z m-366 1 c3 -5 -10 -11 -30 -13 -32 -4 -34 -3 -18 9 21 15 40 17 48
4z m1326 -6 c10 -12 10 -15 -4 -15 -9 0 -16 7 -16 15 0 8 2 15 4 15 2 0 9 -7
16 -15z m400 -10 c10 -12 7 -13 -21 -5 -42 12 -49 20 -17 20 14 0 31 -7 38
-15z m-1392 -14 c15 -9 1 -24 -35 -35 -30 -10 -38 10 -11 28 26 18 28 19 46 7z
m-360 -37 l2 -29 -20 24 c-11 12 -17 27 -14 33 11 17 29 2 32 -28z m1403 26
c10 -6 19 -15 19 -20 0 -13 -47 -13 -55 0 -3 6 -11 10 -16 10 -6 0 -7 -4 -4
-10 3 -5 1 -10 -4 -10 -14 0 -14 13 1 28 15 15 33 15 59 2z m346 -6 c3 -8 -2
-23 -11 -32 -15 -15 -16 -14 -16 16 0 33 16 43 27 16z m-1357 -9 c0 -8 -7 -15
-16 -15 -14 0 -14 3 -4 15 7 8 14 15 16 15 2 0 4 -7 4 -15z m1257 -17 c-3 -8
-6 -5 -6 6 -1 11 2 17 5 13 3 -3 4 -12 1 -19z m-1703 6 c22 -9 10 -24 -20 -24
-23 0 -31 10 -17 23 8 9 17 9 37 1z m1876 -13 c0 -13 -27 -21 -45 -15 -25 10
-17 24 15 24 17 0 30 -4 30 -9z m-1959 -27 c-11 -14 -17 -32 -14 -41 4 -11 2
-14 -5 -9 -7 4 -12 13 -12 19 0 17 29 57 41 57 6 0 1 -12 -10 -26z m493 20
c22 -9 10 -24 -20 -24 -25 0 -33 15 -11 23 6 3 13 6 14 6 1 1 8 -2 17 -5z
m1051 -13 c10 -18 -36 -24 -53 -7 -15 15 -14 16 15 16 18 0 34 -4 38 -9z m463
-3 c14 -14 16 -54 3 -62 -5 -4 -7 3 -4 13 3 11 -4 28 -16 40 -13 13 -16 21 -8
21 7 0 18 -5 25 -12z m-1448 -7 c0 -11 -50 -24 -58 -16 -8 8 19 25 41 25 9 0
17 -4 17 -9z m550 -5 c0 -8 -4 -18 -10 -21 -5 -3 -10 -1 -10 4 0 20 -18 11
-24 -11 -5 -19 -8 -20 -15 -8 -8 12 -12 9 -20 -12 -13 -34 -59 -35 -68 0 -6
23 -23 30 -24 10 0 -7 -4 -3 -9 10 -6 13 -17 22 -26 20 -9 -2 -19 3 -21 10 -4
9 23 12 111 12 94 0 116 -3 116 -14z m50 -36 c0 -12 -2 -13 -9 -1 -7 11 -11
10 -19 -5 -6 -10 -14 -15 -19 -11 -4 5 0 13 10 18 9 6 17 15 17 20 0 6 -4 7
-10 4 -11 -7 -14 8 -3 18 8 9 32 -23 33 -43z m314 44 c9 -3 16 -10 16 -16 0
-14 -53 -5 -58 10 -4 13 16 16 42 6z m-1374 -10 c0 -13 -21 -44 -30 -44 -11 0
-14 33 -3 43 8 8 33 9 33 1z m99 -72 c0 -13 -2 -12 -9 4 -5 12 -13 25 -19 29
-6 3 -16 16 -22 28 -7 15 -1 12 20 -11 17 -18 31 -40 30 -50z m642 51 c-12
-20 -14 -14 -5 12 4 9 9 14 11 11 3 -2 0 -13 -6 -23z m1099 2 c0 -2 -3 -11 -6
-19 -8 -22 -34 -2 -34 26 0 16 3 17 20 8 11 -6 20 -12 20 -15z m-1824 -32
c-10 -10 -19 5 -10 18 6 11 8 11 12 0 2 -7 1 -15 -2 -18z m764 12 c0 -8 -4
-15 -10 -15 -5 0 -10 7 -10 15 0 8 5 15 10 15 6 0 10 -7 10 -15z m1018 -20
c-9 -9 -30 14 -23 25 6 9 10 8 17 -4 6 -10 8 -19 6 -21z m-1864 13 c-4 -6 -11
-25 -15 -42 l-7 -31 -1 31 c-1 16 4 35 11 42 15 15 21 15 12 0z m882 -15 c-6
-15 -9 -15 -16 -3 -6 9 -5 17 3 22 16 10 21 2 13 -19z m1060 3 c12 -19 13 -29
5 -43 -9 -15 -10 -14 -11 13 0 16 -5 35 -12 42 -7 7 -9 12 -5 12 3 0 14 -11
23 -24z m-876 0 c0 -19 -20 -32 -21 -14 0 7 -7 0 -14 -17 -11 -25 -14 -27 -20
-12 -5 11 0 23 16 37 29 23 39 25 39 6z m-955 -16 c-20 -22 -31 -20 -22 5 4 8
14 15 23 15 16 0 16 -2 -1 -20z m1725 5 c22 -27 5 -37 -19 -11 -19 20 -21 26
-9 26 9 0 21 -7 28 -15z m-917 -1 c9 -9 -4 -35 -14 -28 -5 3 -9 12 -9 20 0 14
12 19 23 8z m-873 -49 c-11 -22 -20 -31 -20 -22 0 18 30 71 36 64 2 -2 -5 -21
-16 -42z m917 13 c-3 -8 -6 -5 -6 6 -1 11 2 17 5 13 3 -3 4 -12 1 -19z m928
-8 c18 -34 18 -40 5 -40 -5 0 -10 8 -10 17 0 9 -7 25 -17 35 -9 10 -11 18 -5
18 6 0 18 -13 27 -30z m-1755 -13 c0 -5 -4 -5 -10 -2 -5 3 -10 14 -10 23 0 15
2 15 10 2 5 -8 10 -19 10 -23z m797 -303 c-7 -42 -39 -124 -48 -124 -7 0 43
159 50 160 2 0 1 -16 -2 -36z"/>
<path d="M3356 3535 c-22 -22 -20 -30 8 -48 22 -15 25 -15 40 2 18 19 21 41 7
41 -6 0 -16 -9 -24 -20 -17 -25 -30 -15 -16 12 14 26 6 33 -15 13z"/>
<path d="M2512 2338 l3 -363 130 -2 130 -3 28 50 c32 60 33 64 7 57 -24 -6
-26 11 -5 39 20 27 18 44 -5 44 -20 0 -20 0 0 33 24 38 25 57 5 57 -18 0 -18
8 0 40 19 33 19 54 0 46 -19 -7 -19 -3 5 44 20 40 15 55 -15 44 -14 -6 -13 -1
4 27 25 40 27 59 6 59 -19 0 -19 10 -2 35 8 11 17 28 20 39 6 15 3 17 -13 13
-26 -7 -25 5 6 59 l26 44 -96 0 c-53 0 -96 -3 -96 -7 0 -5 11 -28 25 -52 29
-50 30 -52 10 -45 -30 12 -34 -7 -10 -46 31 -49 31 -48 0 -42 l-25 4 27 -48
c22 -40 24 -46 9 -41 -32 13 -35 -3 -8 -50 22 -39 23 -45 8 -40 -32 13 -36 -4
-11 -41 l25 -37 -25 -3 -26 -3 26 -45 c25 -42 25 -44 5 -44 -23 0 -24 -6 -5
-40 19 -34 18 -40 -6 -40 -20 0 -20 -1 5 -46 14 -26 26 -48 26 -49 0 -2 -18 1
-40 6 -24 5 -49 5 -65 -1 -30 -11 -30 -14 -5 38 11 22 20 44 20 48 0 3 -9 4
-20 1 -25 -6 -25 0 0 41 25 40 25 42 0 42 -25 0 -25 2 0 42 25 41 25 48 0 48
l-20 0 20 40 c25 49 25 53 0 45 -25 -8 -25 1 0 43 25 41 25 55 0 47 -25 -8
-25 2 0 40 25 38 25 49 0 42 -25 -6 -25 4 0 45 25 42 25 52 0 45 -25 -6 -25
-6 5 53 l25 50 -55 0 -55 0 2 -362z"/>
<path d="M2884 2656 c31 -53 32 -66 6 -59 -26 7 -25 0 5 -51 l25 -43 -25 5
c-30 5 -31 2 -5 -40 24 -39 25 -49 6 -42 -27 10 -27 -15 0 -57 25 -40 25 -42
5 -36 -28 7 -28 -16 0 -54 l20 -29 -25 0 c-32 0 -32 -6 -1 -52 30 -45 31 -48
5 -41 -26 7 -26 -10 1 -54 l21 -34 -26 7 c-32 8 -32 3 1 -56 l27 -49 98 0 c54
0 98 3 98 8 0 14 -56 21 -89 11 -37 -10 -37 -10 -11 40 11 22 20 42 20 46 0 3
-9 4 -20 1 -25 -6 -25 -5 0 43 l20 40 -20 0 c-25 0 -25 2 0 42 25 41 25 48 0
48 -25 0 -25 2 -1 42 21 34 19 51 -4 41 -20 -7 -19 6 5 45 25 41 25 55 0 47
-25 -8 -25 1 0 43 25 40 25 42 0 42 l-20 0 20 40 c25 48 25 50 0 50 -20 0 -20
2 5 50 l25 50 -96 0 -96 0 26 -44z"/>
<path d="M3080 2690 c0 -6 11 -28 25 -50 31 -49 31 -52 -2 -44 l-26 7 26 -48
c15 -26 27 -49 27 -50 0 -1 -12 0 -26 3 l-26 5 28 -48 c23 -40 25 -47 10 -42
-32 13 -35 -2 -9 -49 25 -45 26 -46 4 -39 -27 8 -27 -7 0 -51 l21 -34 -27 0
-26 0 27 -45 26 -45 -25 0 -26 0 26 -45 25 -46 -26 7 c-14 3 -26 3 -26 0 0 -3
14 -28 31 -56 l31 -50 99 0 c55 0 98 4 95 9 -9 14 -64 21 -91 11 -31 -12 -33
3 -5 45 25 38 25 49 0 42 -24 -6 -26 11 -5 39 20 27 18 44 -5 44 -20 0 -20 0
0 33 24 38 25 57 5 57 -18 0 -18 8 0 40 21 37 19 53 -6 45 -20 -7 -20 -5 5 38
27 45 23 63 -9 50 -14 -5 -12 3 10 40 26 46 26 47 6 47 -26 0 -26 1 -1 48 l20
37 -20 3 c-25 4 -25 9 0 47 34 51 29 55 -70 55 -55 0 -90 -4 -90 -10z"/>
<path d="M3290 2694 c0 -3 11 -22 25 -42 30 -45 32 -62 5 -55 -25 7 -25 -4 0
-42 25 -38 25 -55 0 -48 -26 7 -25 1 6 -49 l26 -41 -26 7 c-32 8 -32 2 -1 -52
22 -39 23 -43 6 -37 -28 9 -32 -7 -10 -41 24 -37 24 -44 -1 -44 -25 0 -25 -2
0 -42 25 -41 25 -48 0 -48 -25 0 -25 -5 -2 -38 35 -51 36 -53 8 -46 -32 8 -32
5 2 -56 20 -37 33 -50 50 -50 l22 0 0 365 0 365 -55 0 c-30 0 -55 -2 -55 -6z"/>
<path d="M2825 1993 c-48 -11 -35 -23 25 -23 37 0 60 4 55 9 -14 12 -56 19
-80 14z"/>
<path d="M4928 4053 l-3 -57 -44 -13 c-24 -7 -46 -15 -48 -17 -3 -2 16 -14 42
-25 l47 -21 -4 -60 -3 -59 42 41 42 41 48 -21 c26 -11 49 -19 51 -17 2 1 -11
25 -27 53 l-30 51 34 43 c37 46 33 56 -17 39 -48 -17 -54 -14 -85 34 -15 25
-31 45 -35 45 -4 0 -8 -26 -10 -57z"/>
<path d="M744 4051 c-23 -10 -53 -34 -67 -52 -28 -39 -57 -117 -57 -157 0 -89
62 -171 167 -222 58 -28 79 -33 143 -33 87 -1 125 14 166 68 90 118 65 266
-58 347 -102 68 -212 86 -294 49z m157 -61 c84 -25 168 -77 196 -119 42 -62
26 -141 -37 -195 -27 -22 -41 -26 -95 -26 -107 0 -242 64 -293 140 -29 43 -26
103 9 155 46 66 110 80 220 45z"/>
<path d="M4478 3980 c-2 -28 -9 -35 -38 -46 l-35 -12 33 -12 c30 -11 33 -16
30 -41 -5 -35 -1 -36 29 -7 20 18 26 20 48 10 37 -17 38 -16 19 18 -18 29 -17
30 6 55 28 30 22 40 -15 23 -25 -11 -29 -10 -50 17 l-23 28 -4 -33z"/>
<path d="M1418 3976 c-13 -18 -24 -22 -48 -18 l-32 5 17 -27 c15 -22 16 -31 6
-52 -15 -33 -15 -32 15 -26 17 3 33 -3 50 -18 l24 -23 0 40 c0 38 2 41 33 47
l32 7 -32 14 c-20 8 -33 21 -33 32 0 34 -14 42 -32 19z"/>
<path d="M4595 3781 c-5 -25 -13 -33 -36 -38 -35 -7 -37 -16 -5 -31 22 -10 24
-16 19 -49 l-6 -38 25 23 c27 25 48 28 66 10 17 -17 24 -4 13 25 -8 21 -6 31
12 53 l21 27 -31 -6 c-28 -5 -34 -2 -51 25 l-20 31 -7 -32z"/>
<path d="M1296 3773 c-15 -20 -24 -24 -47 -19 -36 7 -36 1 -3 -28 26 -22 26
-23 10 -54 -18 -35 -16 -38 15 -21 16 8 26 7 44 -5 35 -23 41 -20 37 20 -4 29
-1 36 17 41 29 7 26 23 -4 23 -16 0 -28 7 -31 18 -16 51 -18 52 -38 25z"/>
<path d="M4687 3568 c-14 -32 -21 -38 -47 -38 l-31 0 26 -23 c23 -19 25 -26
16 -50 -12 -31 -10 -32 28 -12 25 12 31 12 47 0 29 -22 33 -18 27 19 -4 28 -1
37 16 48 30 19 26 28 -13 28 -29 0 -34 4 -43 33 l-10 32 -16 -37z"/>
<path d="M1209 3565 c-11 -23 -23 -31 -49 -35 l-34 -5 28 -18 c24 -16 27 -23
22 -53 -7 -33 -7 -34 19 -22 19 8 31 8 50 0 36 -17 36 -16 29 26 -5 33 -3 40
18 49 23 11 23 11 -10 19 -24 5 -36 15 -46 38 l-12 31 -15 -30z"/>
<path d="M494 3444 c-6 -37 -7 -67 -1 -71 4 -3 11 4 14 16 7 27 42 27 215 0
152 -24 202 -45 225 -94 23 -48 3 -119 -41 -146 -40 -24 -86 -24 -261 1 -167
24 -165 24 -165 50 0 37 -18 21 -25 -22 -3 -24 -9 -58 -12 -75 -6 -36 11 -46
22 -13 8 24 -8 24 160 0 244 -34 300 -25 343 60 32 62 28 157 -8 196 -49 52
-102 68 -319 99 -99 14 -120 23 -121 53 0 6 -4 12 -8 12 -5 0 -13 -30 -18 -66z"/>
<path d="M4752 3340 c-12 -25 -17 -28 -43 -23 l-30 6 18 -31 c15 -26 16 -35 6
-52 -19 -29 -16 -30 18 -13 26 13 32 13 47 1 35 -31 41 -30 36 4 -5 28 -1 35
22 50 l28 16 -37 7 c-33 6 -37 11 -37 36 0 37 -12 37 -28 -1z"/>
<path d="M1138 3333 c-2 -22 -9 -29 -30 -31 -34 -4 -35 -9 -3 -34 20 -15 23
-25 18 -50 l-6 -30 26 17 c22 14 32 15 58 6 18 -6 33 -11 35 -11 1 0 -4 14
-13 31 -14 29 -14 32 8 55 l22 24 -35 0 c-27 0 -37 5 -46 25 -15 33 -30 32
-34 -2z"/>
<path d="M5450 3260 c0 -25 -7 -26 -230 -39 -238 -14 -228 -15 -235 9 -3 11
-10 20 -15 20 -6 0 -7 -47 -4 -112 8 -146 31 -204 99 -247 63 -40 163 -57 242
-41 102 21 146 57 169 138 14 47 14 69 3 173 -6 65 -16 119 -20 119 -5 0 -9
-9 -9 -20z m0 -160 c0 -96 -16 -125 -88 -158 -47 -21 -72 -26 -147 -26 -78 0
-96 3 -134 24 -25 15 -52 40 -63 60 -21 41 -25 138 -5 145 12 4 278 20 385 24
l52 1 0 -70z"/>
<path d="M1109 3120 c-1 -14 -1 -29 0 -33 1 -5 -12 -14 -29 -20 -36 -14 -37
-19 -7 -32 15 -7 23 -20 25 -42 4 -39 6 -39 32 -13 15 15 25 18 44 10 32 -12
40 -2 20 28 -15 22 -14 25 7 48 l22 24 -35 0 c-28 0 -41 6 -57 28 l-20 27 -2
-25z"/>
<path d="M4787 3115 c-14 -20 -23 -23 -49 -18 l-32 6 22 -30 21 -30 -22 -22
-22 -23 36 6 c28 5 39 2 54 -14 22 -24 37 -17 29 15 -5 19 0 27 28 41 l33 18
-30 6 c-25 4 -31 10 -33 38 -4 38 -11 40 -35 7z"/>
<path d="M875 2940 c-57 -6 -59 -6 -32 -18 15 -6 38 -14 51 -18 21 -5 24 -13
30 -81 4 -41 5 -77 3 -79 -4 -4 -379 -33 -428 -34 -9 0 -21 12 -28 26 -18 41
-23 22 -16 -60 7 -77 18 -96 29 -53 5 23 9 24 198 36 106 6 206 14 221 16 22
4 30 0 39 -20 22 -48 30 -25 23 68 -10 157 -16 217 -23 220 -4 1 -34 0 -67 -3z"/>
<path d="M4794 2883 c-18 -23 -23 -24 -43 -14 -30 17 -36 8 -17 -22 15 -22 15
-25 -4 -42 -28 -26 -25 -35 11 -28 24 4 33 1 45 -16 21 -29 34 -26 34 8 0 24
5 30 30 35 39 7 38 22 -1 30 -30 6 -31 8 -26 41 7 41 0 43 -29 8z"/>
<path d="M1100 2871 c0 -27 -5 -34 -32 -46 -29 -12 -31 -14 -13 -20 39 -13 50
-22 53 -49 4 -31 17 -34 32 -5 9 16 17 19 41 14 33 -7 39 8 13 36 -14 16 -14
20 2 44 l18 27 -33 -7 c-26 -6 -37 -3 -57 16 l-24 22 0 -32z"/>
<path d="M1634 2730 c-72 -29 -137 -89 -173 -162 -27 -53 -31 -72 -31 -142 0
-64 5 -91 24 -131 34 -72 85 -126 152 -160 52 -26 70 -30 144 -30 73 0 93 4
142 28 70 35 137 108 163 180 27 70 25 176 -3 239 -27 62 -99 138 -159 168
-67 34 -186 38 -259 10z m252 -27 c301 -147 181 -600 -154 -581 -158 9 -283
137 -286 293 -2 128 55 226 163 282 55 29 72 33 143 33 66 0 89 -5 134 -27z"/>
<path d="M1850 2633 c-28 -10 -60 -46 -60 -67 0 -15 -3 -17 -12 -8 -16 16 -28
15 -28 -3 0 -17 -16 -20 -25 -5 -11 18 -26 -1 -19 -23 7 -22 6 -22 -14 -4 -11
11 -25 16 -31 13 -5 -4 -12 -2 -16 4 -3 5 -24 10 -45 10 -51 0 -95 -48 -86
-94 8 -40 49 -76 87 -76 16 0 29 -4 29 -10 0 -5 7 -10 15 -10 8 0 15 -7 15
-16 0 -12 6 -15 21 -11 15 4 19 2 15 -10 -9 -22 3 -34 23 -24 15 8 17 6 13
-18 -5 -38 12 -67 49 -86 34 -18 63 -13 97 18 26 24 31 87 7 107 -10 8 -13 21
-9 33 4 12 1 23 -7 28 -11 7 -10 9 4 9 20 0 23 20 5 38 -9 9 -8 12 5 12 9 0
17 4 17 9 0 5 14 23 30 39 37 37 40 80 8 116 -24 26 -62 39 -88 29z m55 -77
c11 -32 10 -35 -9 -40 -12 -3 -25 -6 -29 -6 -11 0 -36 63 -29 74 3 6 11 -6 17
-25 7 -18 18 -34 26 -34 15 0 15 2 3 50 -9 39 6 25 21 -19z m-53 -86 c9 0 20
-4 23 -10 3 -5 -1 -10 -9 -10 -21 0 -31 -21 -15 -32 11 -7 11 -11 2 -15 -7 -2
-13 -11 -13 -18 0 -7 6 -16 13 -18 6 -3 -3 -6 -21 -6 -18 -1 -53 -12 -78 -26
l-44 -25 6 27 c6 23 4 25 -15 20 -16 -4 -21 -1 -21 15 0 15 -4 18 -22 12 l-23
-6 21 23 c29 33 37 61 24 95 -11 28 -11 28 9 10 20 -18 21 -18 29 4 6 15 11
19 16 12 12 -19 26 -14 26 11 1 19 5 17 38 -21 20 -23 45 -42 54 -42z m-224 2
l19 -39 -28 -10 c-31 -12 -37 -8 -57 40 -6 15 -8 27 -3 27 5 0 14 -13 20 -30
12 -36 46 -43 36 -7 -15 51 -16 57 -11 57 3 0 14 -17 24 -38z m207 -193 c9
-28 15 -52 12 -55 -2 -3 -17 -6 -33 -7 -26 -2 -29 1 -32 31 -3 27 1 35 17 39
17 4 19 9 10 24 -6 12 -6 19 0 19 5 0 17 -23 26 -51z"/>
<path d="M1797 2273 c-12 -12 -7 -41 8 -46 19 -8 28 8 20 33 -6 20 -17 25 -28
13z"/>
<path d="M4093 2729 c-261 -101 -277 -467 -26 -595 51 -25 69 -29 143 -29 73
0 93 4 142 28 156 77 227 274 154 429 -72 153 -256 227 -413 167z m255 -30
c66 -33 109 -77 145 -149 17 -36 21 -62 21 -125 -1 -98 -18 -139 -86 -211 -83
-88 -206 -117 -323 -77 -106 36 -205 174 -205 287 0 102 61 210 149 264 60 37
69 39 162 41 66 1 84 -3 137 -30z"/>
<path d="M4066 2619 c-34 -27 -37 -96 -6 -124 12 -10 18 -25 16 -32 -3 -7 2
-16 11 -21 11 -6 12 -11 4 -16 -18 -12 -13 -26 10 -26 21 0 21 0 -2 -20 l-24
-20 24 -6 c20 -6 22 -9 9 -18 -20 -15 -38 -50 -38 -76 0 -33 53 -80 90 -80 48
0 87 46 81 96 -1 7 8 14 20 17 12 3 18 10 14 17 -4 7 0 10 11 8 15 -2 18 3 17
20 -3 20 0 21 16 12 14 -7 22 -7 26 0 4 6 14 10 23 9 37 -3 54 2 77 26 35 34
33 78 -4 116 -32 32 -65 37 -98 14 -19 -13 -22 -13 -27 1 -4 10 -13 13 -26 9
-14 -5 -20 -2 -20 9 0 21 -17 20 -29 -1 -9 -16 -10 -16 -11 3 0 11 -17 39 -38
62 -45 48 -83 55 -126 21z m39 -49 c-16 -30 -13 -50 6 -50 6 0 15 14 20 30 16
43 29 37 16 -7 -6 -21 -12 -39 -12 -41 -6 -9 -55 20 -55 32 0 21 22 66 32 66
5 0 1 -14 -7 -30z m111 -38 c-2 -4 -1 -14 4 -22 7 -11 11 -11 24 -1 13 11 16
11 16 -3 0 -19 11 -21 28 -4 9 9 12 1 12 -38 0 -29 6 -59 15 -70 20 -27 19
-37 -4 -24 -21 11 -37 -2 -26 -20 3 -5 -3 -10 -14 -10 -12 0 -21 -7 -21 -15 0
-20 -13 -19 -34 4 -9 10 -38 22 -62 26 -43 6 -45 8 -30 24 20 22 20 31 1 31
-18 0 -20 16 -2 23 8 3 6 10 -8 21 -19 15 -19 15 9 16 20 0 38 11 60 34 30 34
42 44 32 28z m159 -72 c-16 -30 -13 -50 6 -50 6 0 15 14 20 30 6 17 15 30 20
30 13 0 11 -10 -9 -46 -14 -27 -21 -30 -39 -23 -13 5 -23 15 -23 23 0 21 22
66 32 66 5 0 1 -14 -7 -30z m-178 -152 c-31 -79 -41 -98 -49 -98 -6 0 -7 8 -3
18 18 44 18 54 -1 50 -13 -2 -19 -12 -19 -31 1 -30 -9 -36 -19 -11 -10 27 12
54 44 54 20 0 30 5 30 15 0 8 5 15 11 15 6 0 9 -6 6 -12z"/>
<path d="M5032 2669 c-74 -37 -112 -107 -112 -206 0 -97 60 -173 168 -213 206
-77 362 13 362 209 -1 137 -125 231 -304 231 -52 0 -82 -6 -114 -21z m162 -49
c88 -13 185 -59 209 -98 36 -62 15 -161 -44 -203 -30 -21 -45 -24 -119 -24
-220 1 -340 111 -274 250 18 40 49 62 101 74 51 12 48 12 127 1z"/>
<path d="M4782 2658 c-19 -19 -26 -21 -51 -11 -29 11 -29 10 -24 -22 4 -26 1
-36 -18 -49 l-23 -16 37 0 c31 0 39 -5 53 -32 l17 -32 11 34 c9 27 17 36 39
38 33 4 35 14 5 27 -19 8 -23 17 -21 48 1 20 1 37 0 37 -1 0 -13 -10 -25 -22z"/>
<path d="M1124 2638 c6 -31 3 -36 -19 -46 -30 -14 -24 -32 10 -32 18 0 25 -7
30 -30 8 -35 21 -39 30 -10 5 15 15 20 41 20 40 0 42 6 12 37 -18 20 -20 26
-10 48 17 36 16 37 -15 21 -25 -13 -30 -12 -57 7 l-29 20 7 -35z"/>
<path d="M895 2489 c-73 -23 -101 -24 -109 -3 -3 8 -10 13 -15 10 -10 -6 29
-146 41 -146 4 0 8 11 8 25 0 21 8 27 68 45 37 11 74 23 83 26 35 10 52 -111
24 -165 -35 -69 -135 -124 -246 -138 -107 -13 -199 57 -199 151 0 31 5 38 40
58 65 37 48 44 -57 22 -19 -4 -23 -11 -23 -44 0 -96 67 -197 157 -236 84 -35
247 1 316 72 48 48 61 83 62 159 0 55 -6 82 -27 128 -30 64 -32 65 -123 36z"/>
<path d="M1174 2409 c5 -28 2 -36 -21 -56 l-28 -22 43 -1 c33 0 42 -4 42 -17
0 -10 4 -24 9 -32 7 -10 12 -7 22 15 10 20 23 30 42 32 33 4 34 8 5 32 -21 16
-22 22 -11 49 13 35 8 38 -26 15 -22 -16 -26 -16 -54 1 l-30 18 7 -34z"/>
<path d="M4655 2411 c5 -24 2 -33 -14 -43 -29 -18 -26 -28 9 -28 24 0 32 -6
43 -32 l14 -33 8 25 c9 30 22 40 55 40 l25 0 -28 23 c-25 20 -27 25 -18 50 12
30 5 34 -25 13 -17 -12 -22 -12 -39 0 -29 21 -37 17 -30 -15z"/>
<path d="M1325 2210 c-16 -18 -20 -18 -46 -4 -31 15 -37 7 -19 -25 7 -14 5
-23 -10 -36 -29 -26 -25 -38 10 -32 26 6 32 2 47 -26 l17 -32 6 29 c4 24 12
32 40 39 33 8 34 10 15 23 -10 8 -23 14 -28 14 -5 0 -7 16 -4 35 6 40 -2 44
-28 15z"/>
<path d="M4575 2200 c6 -26 3 -31 -22 -41 l-28 -12 33 -9 c18 -5 35 -15 37
-23 16 -49 14 -48 36 -21 16 20 26 25 45 20 30 -8 31 3 3 32 -17 18 -19 26 -9
44 15 28 8 35 -18 19 -17 -10 -25 -10 -46 4 -35 23 -39 22 -31 -13z"/>
<path d="M4790 2063 c1 -10 61 -81 135 -157 74 -77 135 -140 135 -141 0 -1
-86 18 -191 42 -198 46 -226 46 -196 3 8 -11 85 -92 171 -180 133 -135 156
-163 156 -189 0 -17 3 -31 8 -31 4 0 22 27 40 60 18 33 28 60 23 60 -5 0 -13
-4 -16 -10 -15 -25 -49 -1 -170 121 -95 95 -123 129 -105 125 14 -4 101 -24
193 -46 185 -44 197 -46 197 -28 0 7 -66 80 -147 162 -104 104 -141 147 -123
142 14 -3 81 -19 150 -36 201 -48 200 -48 200 -75 0 -40 13 -29 52 45 35 67
34 88 -2 55 -18 -17 -17 -17 -394 70 -60 14 -110 25 -112 25 -2 0 -4 -8 -4
-17z"/>
<path d="M1440 2024 c-22 -30 -35 -35 -64 -24 -30 11 -30 10 -15 -23 9 -20 8
-30 -7 -52 l-18 -28 36 7 c33 6 39 4 55 -21 l18 -27 5 29 c3 17 15 34 28 41
35 17 37 23 9 33 -20 8 -26 18 -29 48 -3 36 -4 37 -18 17z"/>
<path d="M4470 2006 c0 -28 -4 -35 -25 -40 -29 -7 -34 -26 -7 -26 25 0 42 -19
42 -47 0 -29 16 -30 31 -2 9 17 17 20 46 14 l35 -6 -21 30 c-21 29 -21 31 -5
56 l17 27 -36 -7 c-30 -6 -38 -3 -49 14 -19 30 -28 26 -28 -13z"/>
<path d="M4340 1826 c0 -29 -4 -35 -27 -41 l-28 -7 28 -20 c16 -12 27 -29 27
-44 0 -28 7 -30 31 -8 15 13 24 14 49 6 35 -13 37 -9 10 28 -19 27 -19 27 0
45 28 26 25 38 -9 30 -23 -5 -33 -1 -49 19 -26 34 -32 33 -32 -8z"/>
<path d="M1557 1825 c-14 -20 -23 -23 -47 -18 -33 6 -38 -2 -14 -28 14 -16 14
-20 -1 -50 -16 -30 -16 -32 0 -25 50 19 61 17 75 -11 l15 -28 3 37 c2 29 9 38
33 48 37 16 37 24 -3 35 -28 9 -33 14 -30 38 4 33 -7 34 -31 2z"/>
<path d="M1708 1659 c-16 -27 -22 -30 -48 -24 -35 8 -37 2 -10 -25 17 -17 18
-24 8 -45 -14 -32 -7 -39 26 -24 23 11 29 9 52 -12 l27 -24 -5 33 c-4 27 0 37
19 49 31 21 29 33 -5 33 -24 0 -30 5 -38 35 l-9 36 -17 -32z"/>
<path d="M4190 1657 c-9 -19 -25 -34 -39 -37 l-24 -6 27 -18 c23 -15 27 -23
22 -47 -6 -33 0 -36 26 -12 15 13 23 14 44 5 13 -7 27 -12 29 -12 11 0 4 29
-10 40 -21 18 -19 29 10 42 34 15 32 28 -4 28 -20 0 -35 8 -48 25 l-18 24 -15
-32z"/>
<path d="M4473 1579 c-24 -22 -43 -42 -43 -45 0 -3 13 -3 28 1 26 5 39 -5 155
-125 70 -71 121 -130 114 -130 -8 0 -116 21 -242 46 -155 31 -231 42 -238 35
-7 -7 38 -61 141 -169 84 -88 159 -165 167 -172 11 -9 12 -17 5 -30 -22 -41
-8 -40 38 1 59 54 61 59 20 53 -32 -6 -38 0 -146 115 -63 67 -108 121 -100
120 7 0 108 -20 223 -43 l210 -43 33 30 c38 37 41 50 8 37 -22 -8 -37 4 -165
134 -162 163 -178 183 -162 199 13 13 15 27 4 27 -5 0 -27 -19 -50 -41z"/>
<path d="M1880 1522 c0 -26 -20 -42 -54 -42 l-31 0 24 -19 c19 -15 23 -25 19
-55 -5 -42 -2 -43 29 -14 21 19 25 20 40 6 34 -29 39 -28 35 8 -3 27 1 38 19
54 l24 19 -38 1 c-34 0 -38 3 -43 30 -7 33 -24 41 -24 12z"/>
<path d="M4023 1509 c-11 -28 -15 -30 -45 -24 l-33 7 28 -29 c23 -25 26 -35
21 -64 l-7 -34 21 19 c20 17 34 18 74 1 16 -6 17 -4 7 24 -10 27 -8 33 12 50
l22 18 -30 11 c-17 5 -34 20 -38 31 -9 29 -19 26 -32 -10z"/>
<path d="M1438 1453 l-37 -36 -42 16 c-23 9 -45 15 -47 12 -2 -2 3 -23 12 -46
l17 -42 -43 -44 -42 -43 59 6 60 6 23 -48 c26 -54 35 -49 47 24 7 44 5 43 89
60 l39 7 -49 25 c-27 13 -50 25 -52 26 -1 1 1 27 6 58 5 31 6 56 3 56 -4 0
-23 -17 -43 -37z"/>
<path d="M2063 1389 c-7 -27 -15 -35 -36 -37 -32 -4 -35 -17 -7 -32 14 -8 20
-21 20 -47 l0 -36 25 23 c21 20 28 22 50 12 35 -16 35 -16 23 19 -9 26 -7 34
13 56 l24 26 -34 -5 c-29 -4 -36 -1 -51 25 l-19 30 -8 -34z"/>
<path d="M3838 1393 c-11 -24 -18 -27 -46 -25 l-34 4 22 -22 c17 -17 21 -29
15 -56 -6 -33 -5 -34 18 -23 20 9 30 8 51 -6 l26 -17 0 36 c0 28 5 38 27 50
l28 14 -35 9 c-22 6 -36 16 -38 29 -7 34 -20 37 -34 7z"/>
<path d="M2264 1291 c-5 -24 -14 -36 -35 -43 -36 -12 -37 -24 -4 -32 19 -5 25
-13 25 -35 0 -40 9 -43 34 -14 19 22 25 24 43 14 35 -18 45 -13 27 15 -16 24
-16 27 0 55 l18 30 -35 -6 c-32 -6 -37 -4 -51 22 l-15 28 -7 -34z"/>
<path d="M3633 1292 c-18 -24 -22 -25 -46 -15 -31 15 -33 11 -11 -23 14 -20
15 -30 5 -50 -15 -34 -16 -33 24 -27 26 4 36 2 41 -11 11 -28 34 -19 34 14 0
24 6 33 28 41 l27 11 -32 14 c-25 10 -33 20 -33 38 0 36 -14 39 -37 8z"/>
<path d="M2478 1210 c4 -25 0 -31 -29 -43 l-34 -13 30 -15 c18 -8 31 -23 33
-37 4 -27 28 -29 37 -2 7 23 13 24 49 10 30 -11 32 -8 10 26 -14 20 -15 29 -5
51 15 32 10 37 -23 22 -24 -11 -28 -10 -42 9 -21 30 -31 27 -26 -8z"/>
<path d="M3423 1219 c-17 -18 -24 -19 -43 -9 -25 13 -39 5 -22 -12 15 -15 16
-55 2 -63 -20 -12 -10 -27 15 -22 19 3 31 -2 44 -19 25 -32 31 -30 31 6 0 17
6 32 13 34 54 16 54 17 25 32 -21 11 -28 22 -28 44 0 35 -8 37 -37 9z"/>
<path d="M2690 1167 c0 -26 -6 -41 -20 -49 -27 -17 -25 -26 7 -30 20 -2 29
-11 38 -38 l12 -35 14 30 c12 25 21 30 47 29 37 -2 40 6 13 30 -16 14 -18 23
-10 43 15 39 11 44 -22 27 -30 -15 -32 -15 -55 7 l-24 22 0 -36z"/>
<path d="M3208 1177 c-14 -19 -19 -20 -37 -9 -33 19 -42 15 -30 -14 7 -20 6
-31 -4 -43 -32 -37 -32 -44 1 -38 27 6 34 2 49 -24 l18 -30 11 33 c9 27 17 34
45 38 l33 5 -27 18 c-21 13 -27 25 -27 52 0 40 -8 43 -32 12z"/>
<path d="M2917 1144 c5 -28 2 -39 -10 -46 -25 -13 -21 -28 7 -28 18 0 27 -8
35 -32 12 -33 26 -30 33 7 2 14 13 22 37 25 l33 5 -22 20 c-17 15 -20 26 -15
53 6 31 5 33 -14 23 -11 -6 -23 -16 -26 -22 -5 -7 -12 -6 -23 4 -36 30 -41 29
-35 -9z"/>
<path d="M2220 1044 c0 -4 9 -17 20 -29 l21 -22 -32 -79 c-17 -43 -33 -80 -34
-82 -2 -2 -17 4 -34 12 -17 9 -55 16 -87 16 -52 0 -59 -3 -94 -38 -41 -41 -66
-108 -55 -150 4 -15 21 -39 38 -55 39 -35 227 -111 227 -92 0 7 -7 15 -15 19
-8 3 -15 10 -15 15 0 6 36 103 81 216 74 188 83 205 105 205 13 0 24 3 24 8 0
6 -27 18 -132 58 -10 3 -18 3 -18 -2z m-53 -237 c12 -12 8 -30 -28 -120 l-41
-106 -37 15 c-47 19 -71 49 -71 88 0 43 39 118 70 134 29 15 87 9 107 -11z"/>
<path d="M2587 935 c-82 -28 -106 -79 -138 -294 -23 -152 -23 -154 -52 -166
-16 -7 -26 -15 -21 -17 19 -11 134 -19 134 -9 0 5 -9 13 -20 16 -25 8 -25 2 4
188 29 185 48 231 104 248 49 14 116 -2 137 -35 27 -40 28 -87 5 -242 -24
-170 -32 -194 -60 -194 -41 0 -18 -18 31 -24 29 -4 65 -10 80 -13 33 -6 40 12
9 22 -26 8 -26 33 0 199 25 164 25 201 -3 251 -36 65 -134 97 -210 70z"/>
<path d="M3720 803 c0 -60 -5 -67 -60 -85 l-45 -15 48 -24 48 -24 -6 -60 -6
-60 41 43 c23 23 43 42 45 42 2 0 24 -9 50 -20 26 -11 48 -20 50 -20 2 0 -10
25 -27 55 l-30 56 38 46 38 46 -34 -7 c-19 -5 -45 -10 -56 -13 -17 -4 -29 5
-53 41 -18 25 -34 46 -36 46 -3 0 -5 -21 -5 -47z"/>
</g>
</svg>
